<?xml version="1.0" encoding="utf-8"?>
<!-- Generator: Adobe Illustrator 27.2.0, SVG Export Plug-In . SVG Version: 6.00 Build 0)  -->
<svg version="1.1" id="Capa_2" xmlns="http://www.w3.org/2000/svg" xmlns:xlink="http://www.w3.org/1999/xlink" x="0px" y="0px"
	 viewBox="0 0 1920 1080" style="enable-background:new 0 0 1920 1080;" xml:space="preserve">
<style type="text/css">
	.st0{fill:url(#SVGID_1_);}
	.st1{fill:url(#SVGID_00000070101438365721461480000012051728563169658251_);}
	.st2{fill:url(#SVGID_00000163062410071142376280000009267454496941991853_);}
	.st3{fill:url(#SVGID_00000035512079204571543130000011853833499454578105_);}
	.st4{fill:url(#SVGID_00000078765287894566956280000000668416030613561742_);}
	.st5{fill:url(#SVGID_00000031894547373425994830000016686955423736510621_);}
	.st6{fill:#9C3B1E;}
	.st7{fill:url(#SVGID_00000041990238292625091500000018112365080032646272_);}
</style>
<linearGradient id="SVGID_1_" gradientUnits="userSpaceOnUse" x1="25.9545" y1="594.1015" x2="434.9698" y2="423.6091">
	<stop  offset="0.1279" style="stop-color:#D16D2D"/>
	<stop  offset="0.527" style="stop-color:#DE8133"/>
	<stop  offset="0.8049" style="stop-color:#E38835"/>
</linearGradient>
<path class="st0" d="M0,547.7c0,0,216.7-45.4,358.1-145.9c2,10.6,7.3,15.8,7.3,15.8s9.1,6,19.1,8.9c10.1,2.9,40,9.7,50.7,16.6
	c10.7,6.9,8.3,13.6,5.7,16.3c-2.6,2.7-7.7,7.1-13.4,9.7c-5.7,2.6-22.4,10.1-41,14.6s-61.9,12.4-61.9,12.4s-33,5.3-52.6,17.4
	c-19.6,12.1-89.8,60.1-104.3,66.7s-71.2,41.9-96.5,52.1S0,661.8,0,661.8V547.7z"/>
<linearGradient id="SVGID_00000124851780341456690840000011418714668564488880_" gradientUnits="userSpaceOnUse" x1="394.7971" y1="405.5336" x2="817.4179" y2="580.8252">
	<stop  offset="0.1119" style="stop-color:#D16D2D"/>
	<stop  offset="0.3573" style="stop-color:#C8642A"/>
	<stop  offset="0.7402" style="stop-color:#B14E24"/>
</linearGradient>
<path style="fill:url(#SVGID_00000124851780341456690840000011418714668564488880_);" d="M357.9,402.3c0,0,12.3-6.9,15.2-8.1
	c3-1.2,12.2-5.7,27.8-5.7s14.9,0,33,7.8c18.1,7.8,47.2,23.7,47.2,23.7s68,31.8,78.6,36.3c10.6,4.4,44.6,17,57.9,22.1
	c13.3,5.1,73.5,27.9,73.5,27.9l81.7,27.6c0,0,28.3,9.2,42.6,9.9c-43.2,1-54.1,0-65.4,3.7c-11.2,3.7-17.7,4.3-23.1,6.9
	c-5.4,2.7-18.4,10.9-18.4,10.9s-115.8-39.2-172.3-65.4C479.7,473.7,435,443.7,435,443.7s-13.1-6.5-32.4-11.7
	c-19.4-5.2-33.2-7-39.2-13.6C357.4,411.8,357.9,402.3,357.9,402.3z"/>
<linearGradient id="SVGID_00000065065974189939052460000010490401593402031551_" gradientUnits="userSpaceOnUse" x1="314.254" y1="482.8308" x2="693.1863" y2="640.0016">
	<stop  offset="0" style="stop-color:#D16D2D"/>
	<stop  offset="0.246" style="stop-color:#C8642A"/>
	<stop  offset="0.6298" style="stop-color:#B14E24"/>
</linearGradient>
<path style="fill:url(#SVGID_00000065065974189939052460000010490401593402031551_);" d="M708.8,564.8l-39,20.2l-100.4,48.3
	c0,0-8.7,4.4-12.9,5.1s-32-7.1-32-7.1s-54-20.6-66-27.9s-68.8-29.8-86-31.7c-17.2-1.9-52.9-4.1-52.9-4.1s-31.1-3.7-39.6-10.3
	c-8.5-6.6-17.1-18.9-17.1-18.9s-2.1-11.4,1-16.4c3.1-4.9,12.4-13,24.3-16.9c12.9-4.7,21.1-6.6,25.2-7.5c4.1-0.9,25.6-5,26.2-5.1
	s23.1-4.9,40.3-8.3c17.2-3.4,32.8-8.8,42.8-13.7s14.4-7.5,17-10.4c2.6-2.9,3.2-3.6,3.1-6.3c-0.1-2.7-2.2-5.3-2.2-5.3
	c-1.6-2-6.1-4.6-8.1-5.9"/>
<linearGradient id="SVGID_00000121261830429950001990000014387696886081812660_" gradientUnits="userSpaceOnUse" x1="408.7213" y1="599.8827" x2="554.4965" y2="660.3463">
	<stop  offset="0.1119" style="stop-color:#D16D2D"/>
	<stop  offset="0.3573" style="stop-color:#C8642A"/>
	<stop  offset="0.7402" style="stop-color:#B14E24"/>
</linearGradient>
<path style="fill:url(#SVGID_00000121261830429950001990000014387696886081812660_);" d="M557.3,639.2l-32.5,15.2
	c0,0-33.6-1.8-45.5-4.3c-11.9-2.6-26.7-10.2-26.7-10.2s-9.7-5.4-14.2-10.3c-4.6-4.9-8.1-16.1-8.1-16.1s-3.4-11.1-5.3-14.1
	c-5.5-8.6-21.5-18.7-21-19.7c0.2-0.4,4,0.4,17.3,6.3"/>
<linearGradient id="SVGID_00000045595475368121191490000012309430052612616582_" gradientUnits="userSpaceOnUse" x1="76.1932" y1="760.7908" x2="328.1516" y2="621.1537">
	<stop  offset="0" style="stop-color:#D46E2E"/>
	<stop  offset="9.148265e-02" style="stop-color:#D87330"/>
	<stop  offset="0.3297" style="stop-color:#DD7A31"/>
	<stop  offset="0.992" style="stop-color:#DE7C32"/>
</linearGradient>
<path style="fill:url(#SVGID_00000045595475368121191490000012309430052612616582_);" d="M0,660.8c0,0,64.1-27.3,71.6-30.6
	c7.5-3.3,47.6-23.1,50.6-25.1c2.9-2,42.8-24.6,43.1-24.4c0,0,62.5-40.9,67.9-44.5s26.4-16.7,26.4-16.7l7.9-4.7l6.2-3.4l2.8-1.6
	c0,0,7.9-3.5,8.4-3.5c-2.8,1.4-7.7,5.4-8.5,6c-0.9,0.6-2.6,1.8-3.4,2.5c-0.9,0.7-2.8,2.2-3.5,2.8c-0.7,0.6-3.7,2.5-4.9,6.8
	c-1.1,4.3-1.3,10.8,2.3,17.7s10.1,11.7,14.7,14.6c4.7,2.9,12.5,5.4,16,6.2c3.5,0.8,16.6,3.4,26.3,4c9.7,0.6,26.5,1.7,26.5,1.7
	l18.8,1.5c0,0,6.4,0.5,12.2,2.2c5.8,1.7,20.7,6.2,22.4,7.4c1.8,1.2,12.6,5.7,21.2,16.8c8.7,11.1,5.3,19.6,12.4,29.6
	c7.1,10,15.4,12.6,22.3,15.5s16.4,7.5,29.4,9c13,1.5,35.4,3.9,35.4,3.9l-164.1,64.1L257,746.9l-143.2,35L0,799.5V660.8z"/>
<linearGradient id="SVGID_00000000907501785423620990000015691687195614933127_" gradientUnits="userSpaceOnUse" x1="585.1123" y1="702.883" x2="906.7486" y2="524.6299">
	<stop  offset="0" style="stop-color:#D46E2E"/>
	<stop  offset="2.848064e-02" style="stop-color:#D56F2E"/>
	<stop  offset="0.2834" style="stop-color:#DA7630"/>
	<stop  offset="0.992" style="stop-color:#DC7831"/>
</linearGradient>
<path style="fill:url(#SVGID_00000000907501785423620990000015691687195614933127_);" d="M456.4,695.5c5.3,2.4,51.4,10.2,78.8,14.5
	c27.4,4.3,55.1,2.9,81.5,2.4c26.4-0.5,53.8-4.4,74.9-8.9s61.4-17.4,71.8-21.1s49-20.1,61.4-25.5c12.4-5.4,47.3-23.5,60.9-29.8
	c13.6-6.3,68.1-37.1,84.3-44.8c16.2-7.7,67.7-38.5,67.7-38.5s42.4-26.2,54.5-33.9c12.1-7.7,27.7-10.9,27.7-10.9s-33.9,0-45.3,0
	s-33.7,1.7-46.3,2.6c-12.6,0.9-39.5,7.3-53.8,12.1c-14.3,4.8-32.8,10.8-57,19.9c-24.2,9.2-56.4,24.7-72,31.2
	c-15.7,6.6-89,31.9-99.7,35.5c-10.7,3.6-60.8,15.8-68.3,17.9S585,633.8,585,633.8l-22.7,2.7l-105.9,44.6"/>
<path class="st6" d="M1920,660.3l-116.3-19.7c0,0-1.8-37.8-7.4-46.5c-5.6-8.7-14-17.9-23-23.5c-8.9-5.6-20.9-9.7-41.4-11.7
	c-20.4-2-96.8-1-96.8-1s-29.4-1.8-40.3-8.9c-11-7.1-17.4-15.3-19.7-20.9c-2.3-5.6-4.1-25.5,0-36.8s5.6-25.3,5.1-30.9
	c-0.5-5.6-3.7-14.1-8.9-19.4c-5.3-5.3-11.1-10.6-22.5-12.9c-11.4-2.4-24.3-0.9-24.3-0.9l-32.5,2.2c0,0-27.9,4.9-35.9,4.6
	s-17.4-0.5-20.6-4.6s4.3-17.9,4.3-17.9s14.8-17.5,16.9-19.4c2-1.9,42.2-35.1,45.6-38.6s12.9-12.3,14.3-14.3c1.4-2,2.6-3.4,1.4-6.3
	c12.9,6.3,41.2,21.3,41.2,21.3s354.4,174.1,360.9,175.1"/>
<linearGradient id="SVGID_00000058559006419856130580000003381285804845206454_" gradientUnits="userSpaceOnUse" x1="508.8268" y1="755.4799" x2="1523.068" y2="516.0048">
	<stop  offset="0" style="stop-color:#DF7A32"/>
	<stop  offset="6.191352e-02" style="stop-color:#E58034"/>
	<stop  offset="0.202" style="stop-color:#EC8636"/>
	<stop  offset="0.5913" style="stop-color:#EE8837"/>
</linearGradient>
<path style="fill:url(#SVGID_00000058559006419856130580000003381285804845206454_);" d="M1803.9,640.6l-345.2-55.7
	c0,0-63.3,3.1-88.3,13.8s-76.1,28.1-76.1,28.1l-164.6,6.6l-97,4.1l-16,3.1l-82.7,27.6l-161,53.8l-52.1,16.7l-78.6,19.1l-87.1,9.2
	l-26.2,3.4h-72.3c0-74.9,0-74.9,0-74.9s64.3,10.8,73.2,12.2c8.8,1.3,44.8,4.4,66,3.9c21.3-0.5,63.5-2.3,86-7.1
	c22.4-4.8,107.7-30.9,155.4-54.5c47.7-23.5,124.3-65.2,124.3-65.2s78.6-44.3,89.5-50.9s39.7-23.6,39.7-23.6l42.7-22.1l79.8-42.3
	c0,0,55.4-28.3,64.9-32.7s120.3-50.3,127.9-53.1c7.6-2.8,87-27,88.3-27.4s7.8-3.5,14-2.5c6.1,1,10,2.7,10,2.7s2.2,2-1.2,6.6
	c-3.4,4.6-9.9,10.9-16.6,17.2c-6.6,6.4-19,14.9-19,14.9l-23.8,20.4c0,0-15.9,17.6-16.9,19.5c-1,1.9-7.3,13-5.5,16.8
	c1.8,3.8,6.5,4.1,6.5,4.1s8.4,0.9,13.9,0.9c5.5,0,11.5-0.8,14.9-1.3c3.4-0.5,13-1.9,21.9-2.9c8.9-1,22.7-1.8,22.7-1.8
	s16.5-0.9,20.9-0.7c4.4,0.2,16.3,0.8,22.5,4.6c2.2,1.4,4.2,2.1,7,4.5c2.8,2.4,6.8,6.1,8.9,9c3.4,4.6,5.3,9.8,5.9,14.3
	c0.6,4.4,0.5,12.7-1,19.6s-5,14.6-5.6,18.8c-0.6,4.2-1.1,11.6-0.8,16c0.3,4.4,1,12.6,2.9,16c1.9,3.4,4.4,7.8,10.3,12.9
	c6,5.1,9.6,7.8,22.7,11.1c13.1,3.3,26.2,3.7,26.2,3.7l49.9-0.5c0,0,19.8-0.9,44.3,0.9c24.4,1.8,36.1,6,47.8,15.7
	c11.7,9.6,19.1,17.4,21.6,25.2c2.5,7.7,4.3,24.2,4.6,33.6C1803.6,641.2,1803.9,640.6,1803.9,640.6z"/>
</svg>
