<?xml version="1.0" encoding="utf-8"?>
<!-- Generator: Adobe Illustrator 27.2.0, SVG Export Plug-In . SVG Version: 6.00 Build 0)  -->
<svg version="1.1" id="Capa_2" xmlns="http://www.w3.org/2000/svg" xmlns:xlink="http://www.w3.org/1999/xlink" x="0px" y="0px"
	 viewBox="0 0 1920 1080" style="enable-background:new 0 0 1920 1080;" xml:space="preserve">
<style type="text/css">
	.st0{fill:url(#SVGID_1_);}
	.st1{fill:url(#SVGID_00000088094377962782809470000008838847658465674402_);}
	.st2{fill:url(#SVGID_00000181086690136414233160000005293202500113941385_);}
	.st3{fill:url(#SVGID_00000145763346500526034420000015400612200875394961_);}
</style>
<linearGradient id="SVGID_1_" gradientUnits="userSpaceOnUse" x1="924.8466" y1="905.8637" x2="1923.1931" y2="780.5724">
	<stop  offset="0.3646" style="stop-color:#EE8838"/>
	<stop  offset="0.6824" style="stop-color:#F09B46"/>
	<stop  offset="1" style="stop-color:#F2A950"/>
</linearGradient>
<path class="st0" d="M1920,707.1l-66.9-28.3c0,0-39.3-17-50-18.8s-27.9-2-27.9-2s-20.3,1.5-28,13.2c-7.7,11.7-2,27.4-2,27.4l20,35.9
	c0,0,10,22.7,3.2,35.4s-26.8,14.7-26.8,14.7s-42.9-0.3-80.6-2.8c-37.7-2.6-217.5-27.4-217.5-27.4s-48-6.8-81-7.5
	c-33-0.7-63.7,1.4-63.7,1.4s-33.7,2.4-124.3,20.1c-90.6,17.7-100.8,33-163.7,41.9s-97,8.5-97,8.5v103.5H1920V707.1z"/>
<linearGradient id="SVGID_00000093891824840554640120000002499754715266278569_" gradientUnits="userSpaceOnUse" x1="1489.959" y1="773.9826" x2="1775.6276" y2="715.2496">
	<stop  offset="8.763950e-02" style="stop-color:#F09B45"/>
	<stop  offset="0.3525" style="stop-color:#F1A14B"/>
	<stop  offset="0.707" style="stop-color:#F3B25A"/>
	<stop  offset="0.9395" style="stop-color:#F5C168"/>
</linearGradient>
<path style="fill:url(#SVGID_00000093891824840554640120000002499754715266278569_);" d="M1770.8,658.6c0,0-37.6-2-52.6,1.8
	c-15,3.7-43.7,16-43.7,16l-84.3,39.3c0,0-90.7,42.4-111.1,43.5c25.4,6.6,63.9,11,63.9,11s80,11.8,92.4,12.8
	c12.4,1,83.7,14.6,110.8,4.6s30-16.5,28.6-34.2c-1.4-17.7-23-51.1-23-51.1s-8-20.9-1.8-29.6C1756.4,663.9,1766.8,658.5,1770.8,658.6
	z"/>
<linearGradient id="SVGID_00000003083702779559607080000004261296588470772666_" gradientUnits="userSpaceOnUse" x1="-593.8587" y1="951.712" x2="906.4493" y2="763.4253">
	<stop  offset="0.3646" style="stop-color:#EE8838"/>
	<stop  offset="0.6824" style="stop-color:#F09B46"/>
	<stop  offset="1" style="stop-color:#F2A950"/>
</linearGradient>
<path style="fill:url(#SVGID_00000003083702779559607080000004261296588470772666_);" d="M390.2,716.8l-66.9-28.3
	c0,0-39.3-17-50-18.8c-10.7-1.8-27.9-2-27.9-2s-20.3,1.5-28,13.2c-7.7,11.7-2,27.4-2,27.4l20,35.9c0,0,10,22.7,3.2,35.4
	s-26.8,14.7-26.8,14.7s-42.9-0.3-80.6-2.8C93.6,788.9-86.3,764-86.3,764s-48-6.8-81-7.5s-63.7,1.4-63.7,1.4s-33.7,2.4-124.3,20.1
	c-90.6,17.7-100.8,33-163.7,41.9s-97,8.5-97,8.5v103.5l1529.8,9.4V750c0,0-187.5,35.2-296.3,32.2S390.2,716.8,390.2,716.8z"/>
<linearGradient id="SVGID_00000015324744950864691810000016571344145354744223_" gradientUnits="userSpaceOnUse" x1="-40.2643" y1="781.689" x2="245.4043" y2="722.9559">
	<stop  offset="8.763950e-02" style="stop-color:#F09B45"/>
	<stop  offset="0.3525" style="stop-color:#F1A14B"/>
	<stop  offset="0.707" style="stop-color:#F3B25A"/>
	<stop  offset="0.9395" style="stop-color:#F5C168"/>
</linearGradient>
<path style="fill:url(#SVGID_00000015324744950864691810000016571344145354744223_);" d="M241,668.3c0,0-37.6-2-52.6,1.8
	c-15,3.7-43.7,16-43.7,16l-84.3,39.3c0,0-90.7,42.4-111.1,43.5c25.8,3.5,64.2,8.6,64.2,8.6s95.8,12.2,108.2,13.2
	c12.4,1,78.2,4.8,90,3.6c11.9-1.1,21.6-8.4,21.6-8.4s8.7-3.8,7.4-21.6s-18.1-42.9-18.1-42.9l-7.3-13c0,0-4.8-17.7,1.4-26.4
	S237,668.2,241,668.3z"/>
</svg>
