<?xml version="1.0" encoding="utf-8"?>
<!-- Generator: Adobe Illustrator 27.2.0, SVG Export Plug-In . SVG Version: 6.00 Build 0)  -->
<svg version="1.1" id="Capa_2" xmlns="http://www.w3.org/2000/svg" xmlns:xlink="http://www.w3.org/1999/xlink" x="0px" y="0px"
	 viewBox="0 0 1920 1080" style="enable-background:new 0 0 1920 1080;" xml:space="preserve">
<style type="text/css">
	.st0{fill:url(#SVGID_1_);}
	.st1{fill:url(#SVGID_00000048482043383292132960000010276589270209634490_);}
	.st2{fill:url(#SVGID_00000142144628909567857970000004366099470151960981_);}
	.st3{fill:url(#SVGID_00000031929832798234605260000012452512456627446441_);}
	.st4{fill:#D9672D;}
	.st5{fill:#D3642C;}
</style>
<linearGradient id="SVGID_1_" gradientUnits="userSpaceOnUse" x1="47.688" y1="896.9888" x2="708.1388" y2="606.9255">
	<stop  offset="0.1971" style="stop-color:#EE8435"/>
	<stop  offset="0.9192" style="stop-color:#F1A03F"/>
</linearGradient>
<path class="st0" d="M0,793.3c0,0,57.2-6.1,104.5-14.6c47.3-8.5,123.2-29.3,123.2-29.3l66.7-17.7c0,0,100.1-27.9,134.5-42.6
	s218.2-94.3,252.9-114s39.5-22.8,39.5-22.8c-10.2,8.5-14,10.2-14.6,15.7c-0.7,5.4-2.4,6.8-0.7,13.6c1.7,6.8,5.4,21.1,5.4,21.1
	s2.7,2.4,2.7,12.9c0,10.6,0.7,12.6-2.7,21.1c-3.4,8.5-10.6,18.7-10.6,18.7s-9.2,12.6-17.4,20.1c-8.2,7.5-39.8,25.2-39.8,25.2
	s-26.6,9.9-44.9,14.3s-46.6,9.5-46.6,9.5s-32,7.1-45.6,12.6c-13.6,5.4-21.4,7.5-28.3,12.9c-6.8,5.4-11.9,11.9-11.9,23.1
	c0,11.2,3.1,25.2,9.5,32c6.5,6.8,24.9,17.4,24.9,17.4s-34.7,0.7-48.3,2c-13.6,1.4-83.7,14-83.7,14l-85.1,22.1
	c0,0-73.9,21.1-106.6,26.6c-32.7,5.4-79.7,7.8-79.7,7.8L0,887.6V793.3z"/>
<linearGradient id="SVGID_00000044156156503008348480000018391418914854704829_" gradientUnits="userSpaceOnUse" x1="770.5898" y1="457.9992" x2="1472.4055" y2="1334.4117">
	<stop  offset="0.2222" style="stop-color:#E26F30"/>
	<stop  offset="0.6163" style="stop-color:#E06E2F"/>
	<stop  offset="0.7599" style="stop-color:#D9692E"/>
	<stop  offset="0.8231" style="stop-color:#D3642C"/>
</linearGradient>
<path style="fill:url(#SVGID_00000044156156503008348480000018391418914854704829_);" d="M500.7,822.6c0,0,130.4,6.1,147.1,11.6
	c47-16.7,179.8-65.1,251.1-81.2c71.2-16.1,373,81.2,373,81.2s29.1,7.7,65.1,3.8s71.2-4.6,88.9-7.7c17.6-3.1,58.2-10.7,58.2-10.7
	l52.9-7.7l50.8-6v-45.3c0,0-580.1-196.1-603.6-201.2S893.3,543,855.5,540s-65.7-2.7-81.7-2s-52.4,14.3-52.4,14.3
	s-14.6,9.2-15.3,11.9c-0.7,2.7-4.8,9.2-3.2,19.2c1.5,10,9.4,24.7,9,39c-0.3,14.3-7.1,30.6-37.8,55.5c-30.6,24.9-68.7,34.2-81.7,36.9
	s-50.2,10.6-50.2,10.6s-35.1,8.2-47,13.8c-11.9,5.6-15.9,8-19.1,10.9c-3.2,2.9-8.4,8.2-9.7,12.4c-1.2,4.2-2.6,13-1.6,19.6
	c1,6.6,5.3,19.3,9.5,23.7C478.6,810.1,493.8,819.7,500.7,822.6z"/>
<linearGradient id="SVGID_00000169537638468100277500000015052983472833108893_" gradientUnits="userSpaceOnUse" x1="1180.9347" y1="890.0418" x2="1221.322" y2="429.0596">
	<stop  offset="6.580839e-02" style="stop-color:#E57331"/>
	<stop  offset="0.1172" style="stop-color:#E77832"/>
	<stop  offset="0.3143" style="stop-color:#EB8736"/>
	<stop  offset="0.5454" style="stop-color:#EE9038"/>
	<stop  offset="0.8906" style="stop-color:#EF9339"/>
</linearGradient>
<path style="fill:url(#SVGID_00000169537638468100277500000015052983472833108893_);" d="M471.3,757.2h64.3c0,0,94.5-8.8,110.8-12.9
	c16.3-4.1,58.5-13.8,72-17.1c13.5-3.3,216.8-72.5,216.8-72.5l64.4-20.8c0,0,25.4-8.3,37.7-10.5c12.6-2.2,38.3-3.2,47,6.5
	c8.7,9.7,11.5,19.7,11.5,19.7s3.1,12.3,3.8,22c0.8,9.7,2.6,18.1,12.3,23c9.7,4.9,20.2,2.3,20.2,2.3s20.9-6.4,38.6-16.6
	c17.6-10.2,69.7-41.1,69.7-41.1s97-49,156-59.7c59-10.7,79.4-8.2,92.2-2.8c12.8,5.4,20.9,15.3,24.8,26.8c3.8,11.5-5.4,48.5-3.3,65.9
	s14,29.9,28.6,35c14.6,5.1,53.6,0.8,71.5-3.1c17.9-3.8,89.9-21.2,175.7-21.7c85.8-0.5,134.4,8.7,134.4,8.7V727l-74.9-3.4l-112.3,5.8
	l-150.6,9.1l-133.8,38.3l-116.2,41.9l-62,15.8l-82.7,17.6c0,0-86.6,9.2-123.8,9.2s-183.3-12-219.8-17.4
	c-36.5-5.4-188.4-36.5-188.4-36.5l-41.9-7.4l-142.2-1.9c0,0-3.9-7.9-4.8-20.6C465.6,764.7,471.3,757.2,471.3,757.2z"/>
<linearGradient id="SVGID_00000115482013758068982030000000123394273907290554_" gradientUnits="userSpaceOnUse" x1="1070.0466" y1="623.251" x2="1070.0466" y2="623.251">
	<stop  offset="6.580839e-02" style="stop-color:#E57331"/>
	<stop  offset="0.1172" style="stop-color:#E77832"/>
	<stop  offset="0.3143" style="stop-color:#EB8736"/>
	<stop  offset="0.5454" style="stop-color:#EE9038"/>
	<stop  offset="0.8906" style="stop-color:#EF9339"/>
</linearGradient>
<path style="fill:url(#SVGID_00000115482013758068982030000000123394273907290554_);" d="M1070,623.3"/>
<path class="st4" d="M1070,623.3l225.4-9.7c0,0-46.5,22.5-54.6,27.3s-50.6,29.6-50.6,29.6l-24.2,13.4c0,0-25,12.8-33.7,14.5
	c-8.7,1.7-22.7,0.4-26.7-4.9c-4-5.3-6.3-14.6-6.3-14.6l-2-16.2c0,0-2.8-18.8-12.3-28.9C1075.6,623.6,1070,623.3,1070,623.3z"/>
<path class="st5" d="M1483.3,574.7L1920,648v42.2c0,0-72.6-10-119.2-9.1s-82.3,3.1-103.7,6.1c-21.4,3-64.6,10.7-64.6,10.7
	s-46.2,11.2-67.3,10.3c-21.1-0.8-35-2.5-43-11.4c-8-8.9-15.4-17.5-13.9-37.3c1.5-19.8,4.1-43.8,4.1-43.8s2.2-11-6.8-23.6
	S1483.3,574.7,1483.3,574.7z"/>
</svg>
